<?xml version="1.0" standalone="no"?> <!DOCTYPE svg PUBLIC "-//W3C//DTD SVG 1.0//EN" "http://www.w3.org/TR/2001/REC-SVG-20010904/DTD/svg10.dtd" > <svg xmlns="http://www.w3.org/2000/svg" width="100%" height="100%">
<defs >
<font id="maisonneuebook" horiz-adv-x="558" ><font-face
    font-family="MaisonNeue"
    units-per-em="1000"
    panose-1="2 0 0 0 0 0 0 0 0 0"
    ascent="775"
    descent="-225"
    alphabetic="0" />
<missing-glyph horiz-adv-x="716" d="M65 0V423Q65 540 151 627T357 715Q478 715 564 628T651 423V0H623L558 65L490 0L427 65L356 0L287 65L224 0L157 65L91 0H65ZM425 305L488 368L552 305L566 319L502 382L566 446L552 460L488 396L425 460L411 446L474 382L411
319L425 305ZM165 305L228 368L292 305L306 319L242 382L306 446L292 460L228 396L165 460L151 446L214 382L151 319L165 305Z" />
<glyph unicode=" " glyph-name="space" horiz-adv-x="250" />
<glyph unicode="!" glyph-name="exclam" horiz-adv-x="327" d="M123 208V700H205V208H123ZM105 0V115H222V0H105Z" />
<glyph unicode="&quot;" glyph-name="quotedbl" horiz-adv-x="376" d="M80 476V700H143V476H80ZM203 476V700H266V476H203Z" />
<glyph unicode="#" glyph-name="numbersign" horiz-adv-x="685" d="M195 155L204 299H75V359H208L218 495H107V554H221L232 700H296L286 554H419L429 700H494L484 554H610V495H480L471 359H578V299H467L458 155H393L402 299H269L260 155H195ZM273 359H406L415
495H282L273 359Z" />
<glyph unicode="$" glyph-name="dollar" horiz-adv-x="666" d="M60 241L146 258Q161 167 197 121T312 66Q312 110 312 200T313 334Q200 364 146 411T92 529Q92 604 151 657T314 715V775H358V713Q447 705 504 657T576 522L494 504Q481 562 451 595T357 634V404Q499
363 552 316T606 188Q606 99 541 43T356 -15V-98H312V-13Q89 8 60 241ZM357 322Q357 279 357 193T356 63Q441 63 482 98T523 189Q523 236 490 264T357 322ZM176 529Q176 490 206 464T313 416V636Q245 634 211 604T176 529Z" />
<glyph unicode="%" glyph-name="percent" horiz-adv-x="957" d="M193 370T240 370T312 409T337 515Q337 581 312 614T240 648Q195 648 170 615T144 515Q144 448 168 409ZM240 307Q163 307 119 362T75 516Q75 609 124 660T240 712Q307 712 356 661T406 516Q406
421 361 364T240 307ZM669 51T716 51T788 90T813 196Q813 262 788 295T716 329Q671 329 646 296T620 196Q620 129 644 90ZM716 -12Q639 -12 595 43T551 197Q551 290 600 341T716 393Q783 393 832 342T882 197Q882 102 837 45T716 -12ZM199 -39L688 776L739 744L251
-70L199 -39Z" />
<glyph unicode="&amp;" glyph-name="ampersand" horiz-adv-x="710" d="M635 33L537 118Q517 62 459 24T310 -15Q208 -15 137 36T65 187Q65 322 201 408Q135 474 135 548Q135 618 186 666T318 715Q394 715 444 675T508 560L434 544Q412 641 319 641Q271 641 244
615T217 549Q217 518 231 496T275 448L484 265V392H558V202L685 93L635 33ZM473 170L256 360Q145 299 145 192Q145 128 194 96T320 63Q380 63 421 92T473 170Z" />
<glyph unicode="&apos;" glyph-name="quotesingle" horiz-adv-x="253" d="M95 476V700H158V476H95Z" />
<glyph unicode="(" glyph-name="parenleft" horiz-adv-x="386" d="M329 -160L284 -197Q267 -181 240 -144T175 -41T111 115T85 298Q85 379 103 457T146 586T202 686T252 752T284 786L331 748Q249 658 203 555T157 299Q157 166 206 49T329 -160Z" />
<glyph unicode=")" glyph-name="parenright" horiz-adv-x="386" d="M87 -197L42 -160Q116 -69 165 48T214 299Q214 452 168 555T40 748L87 786Q102 771 119 753T168 686T225 587T267 457T286 298Q286 206 260 115T196 -41T131 -143T87 -197Z" />
<glyph unicode="*" glyph-name="asterisk" horiz-adv-x="500" d="M95 384L187 495L65 568L100 624L217 556V700H283V556L401 624L435 567L313 495L406 384L355 339L250 469L146 339L95 384Z" />
<glyph unicode="+" glyph-name="plus" horiz-adv-x="580" d="M254 120V347H55V413H254V615H326V413H525V347H326V120H254Z" />
<glyph unicode="," glyph-name="comma" horiz-adv-x="308" d="M95 -106V-61Q143 -52 143 0H95V118H213V15Q213 -98 95 -106Z" />
<glyph unicode="-" glyph-name="hyphen" horiz-adv-x="439" d="M55 304V378H384V304H55Z" />
<glyph unicode="." glyph-name="period" horiz-adv-x="308" d="M95 0V118H213V0H95Z" />
<glyph unicode="/" glyph-name="slash" horiz-adv-x="457" d="M20 -15L380 745L437 719L77 -39L20 -15Z" />
<glyph unicode="0" glyph-name="zero" horiz-adv-x="621" d="M311 -15Q188 -15 119 82T50 359Q50 531 122 623T311 715T499 623T571 359Q571 179 502 82T311 -15ZM225 61T311 61T442 139T487 360Q487 494 441 566T311 639T181 567T135 360Q135 218 180 140Z" />
<glyph unicode="1" glyph-name="one" horiz-adv-x="453" d="M221 0V605L70 510V600L231 700H298V0H221Z" />
<glyph unicode="2" glyph-name="two" horiz-adv-x="580" d="M64 0V63Q64 160 100 213Q133 265 256 330Q298 353 312 361T355 387T393 415T416 442T434 476T438 516Q438 567 403 603T296 640Q227 640 186 598T140 478L60 486Q64 594 129 654T298 715Q402 715 460
657T518 512Q518 466 505 432T458 368T406 327T337 288Q328 283 323 280Q312 274 291 263T261 247T238 233T216 219T199 206T183 191T172 176Q152 145 152 83H520V0H64Z" />
<glyph unicode="3" glyph-name="three" horiz-adv-x="587" d="M45 230L126 246Q138 150 178 105T297 60Q373 60 412 99T452 197Q452 339 299 339H249V411H270Q292 411 312 414T362 426T410 461T428 523Q428 578 393 609T298 640T203 605T159 507L81 521Q90 609
149 662T299 715Q390 715 449 666T508 528Q508 469 475 432T399 383V381Q455 368 493 320T532 195Q532 104 467 45T298 -15Q193 -15 126 45T45 230Z" />
<glyph unicode="4" glyph-name="four" horiz-adv-x="564" d="M35 162V237L316 700H442V238H529V162H442V0H362V162H35ZM118 238H362V637H360L118 238Z" />
<glyph unicode="5" glyph-name="five" horiz-adv-x="594" d="M55 179L134 207Q174 61 305 61Q380 61 424 107T468 235Q468 312 425 356T309 400Q207 400 153 316L79 348L142 700H487V624H205L165 403L166 402Q187 430 228 449T326 468Q419 468 484 404T549 234Q549
121 480 53T305 -15Q208 -15 144 38T55 179Z" />
<glyph unicode="6" glyph-name="six" horiz-adv-x="636" d="M339 61Q416 61 458 106T501 229Q501 304 457 349T336 395Q265 395 217 348T169 239Q169 162 217 112T339 61ZM547 537L471 517Q439 640 330 640Q255 640 201 566T146 350L147 349Q153 363 166 380T202
417T264 451T346 465Q444 465 512 401T581 230Q581 116 513 51T339 -15Q285 -15 237 5T148 65T84 175T60 339Q60 505 137 610T332 715Q424 715 478 664T547 537Z" />
<glyph unicode="7" glyph-name="seven" horiz-adv-x="496" d="M35 0L378 621V623H20V700H461V614L130 0H35Z" />
<glyph unicode="8" glyph-name="eight" horiz-adv-x="576" d="M353 642T289 642T192 609T159 527Q159 477 195 444T289 410T382 443T418 527Q418 576 386 609ZM400 -15T289 -15T110 41T41 198Q41 264 80 313T172 379V381Q132 398 106 437T79 535Q79 607 136 661T289
715T441 661T499 535Q499 477 472 438T406 381V379Q460 360 497 312T535 198Q535 97 468 41ZM289 63Q364 63 407 101T451 201Q451 264 406 303T289 342T172 303T126 201Q126 140 169 102T289 63Z" />
<glyph unicode="9" glyph-name="nine" horiz-adv-x="612" d="M78 161L155 185Q186 60 301 60Q467 60 468 347H466Q462 335 451 320T419 285T363 253T283 240Q183 240 117 305T50 478Q50 584 118 649T282 715Q404 715 475 624T547 349Q547 159 479 72T300 -15Q213
-15 155 33T78 161ZM288 314Q358 314 401 359T445 474Q445 545 400 592T282 640Q216 640 173 596T130 478Q130 403 173 359T288 314Z" />
<glyph unicode=":" glyph-name="colon" horiz-adv-x="308" d="M95 0V118H213V0H95ZM95 412V530H213V412H95Z" />
<glyph unicode=";" glyph-name="semicolon" horiz-adv-x="308" d="M95 -106V-61Q143 -52 143 0H95V118H213V15Q213 -98 95 -106ZM95 412V530H213V412H95Z" />
<glyph unicode="&lt;" glyph-name="less" horiz-adv-x="538" d="M55 317L56 387L446 620L483 560L134 352L483 141L445 82L55 317Z" />
<glyph unicode="=" glyph-name="equal" horiz-adv-x="593" d="M65 249V319H528V249H65ZM65 417V487H528V417H65Z" />
<glyph unicode="&gt;" glyph-name="greater" horiz-adv-x="538" d="M467 387L468 317L78 82L40 141L389 352L40 560L77 620L467 387Z" />
<glyph unicode="?" glyph-name="question" horiz-adv-x="515" d="M186 190V245Q186 281 203 307T269 369Q304 394 316 404T350 435T379 478T387 526Q387 570 356 604T260 639Q126 639 116 487L35 495Q37 593 96 654T262 715Q353 715 411 663T470 529Q470 483 454
449T420 397T361 349Q351 341 332 326T306 306T289 291T275 274T268 258T265 237V190H186ZM170 0V115H287V0H170Z" />
<glyph unicode="@" glyph-name="at" horiz-adv-x="737" d="M446 274V368H444Q439 353 399 342L342 326Q309 317 295 303T281 261Q281 200 365 200Q397 200 421 219T446 274ZM508 78L535 33Q510 15 465 0T368 -15Q216 -15 136 84T55 346Q55 506 141 610T374 714Q520
714 601 613T682 356Q682 241 646 193T543 144Q482 144 457 189H455Q426 144 355 144Q296 144 258 175T220 260Q220 306 245 333T325 375L378 390Q416 400 431 409T446 440Q446 465 428 481T372 498Q306 498 290 426L236 439Q242 491 279 522T370 553Q430 553 467
522T504 429V239Q504 217 513 207T545 197Q588 197 608 235T628 354Q628 491 564 577T374 663T180 575T110 346Q110 207 175 122T368 37Q446 37 508 78Z" />
<glyph unicode="A" glyph-name="A" horiz-adv-x="625" d="M20 0L272 700H353L605 0H521L469 137H155L104 0H20ZM180 209H445L313 589H311L180 209Z" />
<glyph unicode="B" glyph-name="B" horiz-adv-x="649" d="M95 0V700H364Q457 700 512 649T568 519Q568 417 481 379V376Q528 361 561 317T594 207Q594 109 534 55T347 0H95ZM178 404H349Q486 404 486 514Q486 567 450 595T348 624H178V404ZM178 76H336Q424 76
468 107T512 207Q512 274 470 302T338 330H178V76Z" />
<glyph unicode="C" glyph-name="C" horiz-adv-x="667" d="M352 636Q262 636 203 565T143 356Q143 212 201 138T352 63Q510 63 530 260L617 249Q607 126 538 56T352 -15Q293 -15 242 6T148 69T80 185T55 356Q55 527 142 621T352 715Q462 715 531 648T615 471L531
456Q501 636 352 636Z" />
<glyph unicode="D" glyph-name="D" horiz-adv-x="667" d="M178 76H301Q529 76 529 351Q529 483 470 553T307 624H178V76ZM95 0V700H314Q374 700 427 679T523 617T591 508T617 351Q617 255 591 184T520 75T423 18T308 0H95Z" />
<glyph unicode="E" glyph-name="E" horiz-adv-x="586" d="M95 0V700H516V624H178V397H488V323H178V76H516V0H95Z" />
<glyph unicode="F" glyph-name="F" horiz-adv-x="567" d="M95 0V700H517V624H178V371H489V298H178V0H95Z" />
<glyph unicode="G" glyph-name="G" horiz-adv-x="674" d="M351 -15Q291 -15 240 6T146 70T79 186T55 357Q55 527 141 621T351 715Q454 715 525 651T613 484L530 469Q495 636 351 636Q261 636 202 565T142 357Q142 214 200 139T351 63Q438 63 488 117T536 267H360V343H619V275Q619
139 545 62T351 -15Z" />
<glyph unicode="H" glyph-name="H" horiz-adv-x="668" d="M95 0V700H178V399H491V700H573V0H491V325H178V0H95Z" />
<glyph unicode="I" glyph-name="I" horiz-adv-x="283" d="M100 0V700H183V0H100Z" />
<glyph unicode="J" glyph-name="J" horiz-adv-x="452" d="M25 150L105 172Q114 122 135 92T198 63Q245 64 262 90T280 183V700H362V179Q362 80 322 34T197 -15Q123 -16 80 29T25 150Z" />
<glyph unicode="K" glyph-name="K" horiz-adv-x="591" d="M85 0V700H168V358H170L454 700H558L302 394L586 0H486L247 332H245L168 242V0H85Z" />
<glyph unicode="L" glyph-name="L" horiz-adv-x="512" d="M95 0V700H178V76H482V0H95Z" />
<glyph unicode="M" glyph-name="M" horiz-adv-x="864" d="M95 0V700H212L431 163H433L652 700H769V0H688V584H686L445 0H419L178 584H176V0H95Z" />
<glyph unicode="N" glyph-name="N" horiz-adv-x="683" d="M95 0V700H185L504 137H506V700H588V0H501L180 563H178V0H95Z" />
<glyph unicode="O" glyph-name="O" horiz-adv-x="700" d="M352 63Q443 63 500 136T557 352Q557 490 499 563T352 636Q262 636 203 565T143 356Q143 212 201 138T352 63ZM352 -15Q293 -15 242 6T148 69T80 185T55 356Q55 527 142 621T352 715Q472 715 558 619T645
352Q645 255 621 182T554 68T461 6T352 -15Z" />
<glyph unicode="P" glyph-name="P" horiz-adv-x="618" d="M95 0V700H364Q470 700 534 644T598 484Q598 382 535 326T366 270H178V0H95ZM178 346H361Q427 346 470 381T514 484Q514 555 470 589T359 624H178V346Z" />
<glyph unicode="Q" glyph-name="Q" horiz-adv-x="700" d="M591 -16L527 47Q453 -15 352 -15Q293 -15 242 6T148 69T80 185T55 356Q55 527 142 621T352 715Q472 715 558 619T645 352Q645 194 573 95L639 30L591 -16ZM298 276L346 322L515 153Q557 223 557 352Q557
490 499 563T352 636Q262 636 203 565T143 356Q143 212 201 138T352 63Q424 63 472 102L298 276Z" />
<glyph unicode="R" glyph-name="R" horiz-adv-x="643" d="M95 0V700H364Q473 700 535 648T598 492Q598 408 552 357T426 292L582 0H489L337 286H178V0H95ZM178 360H359Q429 360 472 391T515 492Q515 624 357 624H178V360Z" />
<glyph unicode="S" glyph-name="S" horiz-adv-x="615" d="M50 241L137 258Q152 156 194 110T334 63Q412 63 452 98T492 184Q492 234 456 263T299 332Q183 369 133 413T82 531Q82 607 141 661T302 715Q401 715 467 666T546 522L462 504Q450 568 414 602T302 636Q236
636 201 606T166 531Q166 491 198 466T340 405Q479 360 527 314T575 188Q575 102 510 44T331 -15Q82 -15 50 241Z" />
<glyph unicode="T" glyph-name="T" horiz-adv-x="565" d="M242 0V624H25V700H540V624H324V0H242Z" />
<glyph unicode="U" glyph-name="U" horiz-adv-x="657" d="M80 228V700H163V234Q163 63 328 63Q410 63 452 106T495 232V700H577V228Q577 108 512 47T328 -15T145 46T80 228Z" />
<glyph unicode="V" glyph-name="V" horiz-adv-x="627" d="M267 0L20 700H109L315 101H317L519 700H607L365 0H267Z" />
<glyph unicode="W" glyph-name="W" horiz-adv-x="908" d="M174 0L45 700H130L235 122H237L411 700H498L673 122H675L778 700H863L734 0H632L455 580H453L277 0H174Z" />
<glyph unicode="X" glyph-name="X" horiz-adv-x="579" d="M25 0L241 365L43 700H136L292 424H294L444 700H535L341 358L554 0H462L290 299H288L117 0H25Z" />
<glyph unicode="Y" glyph-name="Y" horiz-adv-x="572" d="M246 0V295L15 700H107L285 375H287L465 700H557L326 295V0H246Z" />
<glyph unicode="Z" glyph-name="Z" horiz-adv-x="606" d="M55 0V68L447 622V624H73V700H551V632L158 79V77H543V0H55Z" />
<glyph unicode="[" glyph-name="bracketleft" horiz-adv-x="372" d="M85 -182V730H327V671H149V-123H327V-182H85Z" />
<glyph unicode="\" glyph-name="backslash" horiz-adv-x="457" d="M380 -39L20 719L77 745L437 -15L380 -39Z" />
<glyph unicode="]" glyph-name="bracketright" horiz-adv-x="372" d="M297 730V-182H55V-123H233V671H55V730H297Z" />
<glyph unicode="^" glyph-name="asciicircum" horiz-adv-x="545" d="M75 325L248 700H297L470 325H395L273 604L150 325H75Z" />
<glyph unicode="_" glyph-name="underscore" horiz-adv-x="632" d="M65 -138V-70H567V-138H65Z" />
<glyph unicode="`" glyph-name="grave" horiz-adv-x="289" d="M163 595L55 716H156L234 595H163Z" />
<glyph unicode="a" glyph-name="a" horiz-adv-x="540" d="M393 0V58H391Q376 32 334 9T229 -15Q141 -15 96 28T50 136Q50 202 90 239T228 302Q264 311 281 316T322 329T355 346T372 366T380 393Q380 427 353 449T269 472Q163 472 140 367L66 388Q79 458 131 501T266
545Q358 545 411 500T465 357V0H393ZM247 239Q179 220 155 198T130 141Q130 58 235 58Q307 58 346 90T385 170V302H383Q369 273 247 239Z" />
<glyph unicode="b" glyph-name="b" horiz-adv-x="596" d="M167 340V176Q167 129 206 94T303 59Q382 59 423 113T464 265T423 417T303 471Q241 471 204 431T167 340ZM85 0V730H167V479H169Q225 545 316 545Q416 545 481 468T546 265Q546 137 484 61T316 -15Q263
-15 223 5T161 51H159V0H85Z" />
<glyph unicode="c" glyph-name="c" horiz-adv-x="557" d="M433 203L512 187Q499 95 439 40T291 -15Q184 -15 117 59T50 265Q50 394 119 469T291 545Q376 545 435 491T508 351L431 335Q419 394 385 432T291 471Q219 471 175 417T131 265Q131 169 174 114T292 59Q351
59 388 101T433 203Z" />
<glyph unicode="d" glyph-name="d" horiz-adv-x="596" d="M429 176V340Q429 390 392 430T293 471Q214 471 173 417T132 265T173 113T293 59Q351 59 390 94T429 176ZM437 0V51H435Q414 26 374 6T280 -15Q175 -15 113 61T50 265Q50 392 115 468T280 545Q371 545
427 479H429V730H511V0H437Z" />
<glyph unicode="e" glyph-name="e" horiz-adv-x="580" d="M452 163L518 120Q488 62 433 24T296 -15Q188 -15 119 61T50 265T117 468T292 545Q398 545 464 470T530 265V241H132Q133 165 174 112T294 59Q324 59 350 67T390 84T419 112T438 138T452 163ZM134 306H449Q447
373 409 422T292 471Q215 471 175 419T134 306Z" />
<glyph unicode="f" glyph-name="f" horiz-adv-x="330" d="M104 0V457H30V530H105V611Q105 678 135 704T221 730H306V657H236Q205 657 195 645T184 595V530H315V457H185V0H104Z" />
<glyph unicode="g" glyph-name="g" horiz-adv-x="593" d="M90 -96L159 -61Q177 -110 208 -138T298 -167Q362 -167 397 -130T432 -25V46H430Q378 -15 283 -15Q178 -15 114 61T50 265Q50 392 116 468T282 545Q378 545 431 479H433V530H513V-8Q513 -121 457 -180T300
-240Q219 -240 166 -201T90 -96ZM432 174V342Q432 391 395 431T295 471Q217 471 175 417T132 265Q132 167 174 113T295 59Q354 59 393 93T432 174Z" />
<glyph unicode="h" glyph-name="h" horiz-adv-x="594" d="M85 0V730H167V477H169Q191 507 233 526T324 545Q409 545 461 494T514 346V0H432V324Q432 470 309 470Q244 470 206 432T167 333V0H85Z" />
<glyph unicode="i" glyph-name="i" horiz-adv-x="264" d="M91 0V530H173V0H91ZM85 637V730H179V637H85Z" />
<glyph unicode="j" glyph-name="j" horiz-adv-x="258" d="M25 -195V-117H42Q65 -117 76 -106T87 -61V530H169V-63Q169 -135 141 -165T58 -195H25ZM80 637V730H173V637H80Z" />
<glyph unicode="k" glyph-name="k" horiz-adv-x="540" d="M85 0V730H167V287H169L392 530H501L307 320L525 0H430L248 269H246L167 184V0H85Z" />
<glyph unicode="l" glyph-name="l" horiz-adv-x="253" d="M85 0V730H168V0H85Z" />
<glyph unicode="m" glyph-name="m" horiz-adv-x="850" d="M85 0V530H159V479H161Q180 508 217 526T296 545Q346 545 381 523T436 467H438Q457 499 496 522T587 545Q671 545 720 496T770 361V0H691V336Q691 470 583 470Q528 470 498 437T467 343V0H388V336Q388
470 280 470Q222 470 194 435T166 343V0H85Z" />
<glyph unicode="n" glyph-name="n" horiz-adv-x="587" d="M85 0V530H165V479H167Q189 508 230 526T316 545Q402 545 454 492T507 348V0H426V322Q426 470 304 470Q242 470 205 435T167 338V0H85Z" />
<glyph unicode="o" glyph-name="o" horiz-adv-x="578" d="M291 59Q358 59 402 113T447 265T403 416T291 471Q221 471 176 418T131 265T176 113T291 59ZM291 -15Q186 -15 118 59T50 265Q50 395 120 470T291 545Q391 545 459 470T528 265Q528 133 461 59T291 -15Z" />
<glyph unicode="p" glyph-name="p" horiz-adv-x="598" d="M167 342V174Q167 128 206 94T303 59Q382 59 424 113T467 265Q467 362 424 416T303 471Q242 471 205 431T167 342ZM85 -225V530H163V479H165Q185 504 225 524T317 545Q416 545 482 469T548 265Q548 137
484 61T317 -15Q268 -15 227 6T169 51H167V-225H85Z" />
<glyph unicode="q" glyph-name="q" horiz-adv-x="598" d="M432 174V342Q432 391 395 431T295 471Q217 471 175 417T132 265Q132 167 174 113T295 59Q354 59 393 93T432 174ZM432 -225V51H430Q379 -15 281 -15Q178 -15 114 61T50 265Q50 392 116 468T282 545Q333
545 373 525T434 479H436V530H513V-225H432Z" />
<glyph unicode="r" glyph-name="r" horiz-adv-x="351" d="M85 0V530H163V473H165Q181 505 212 522T275 539Q287 539 298 537T316 532L321 529L306 448Q291 456 264 456Q213 456 190 423T167 315V0H85Z" />
<glyph unicode="s" glyph-name="s" horiz-adv-x="517" d="M45 180L122 195Q137 56 269 56Q332 56 363 79T395 140Q395 180 366 200T242 246Q144 273 104 307T64 399Q64 458 113 501T248 545Q335 545 386 504T454 393L383 374Q352 475 248 475Q196 475 168 453T140
401Q140 368 167 352T291 308Q394 279 432 242T472 140Q472 77 422 31T270 -15Q165 -15 110 39T45 180Z" />
<glyph unicode="t" glyph-name="t" horiz-adv-x="360" d="M104 154V457H30V530H106V660H184V530H315V457H185V164Q185 117 198 98T250 79H290V0H246Q171 0 138 38T104 154Z" />
<glyph unicode="u" glyph-name="u" horiz-adv-x="575" d="M80 185V530H162V197Q162 123 190 92T285 61Q345 61 377 98T409 201V530H490V0H410V51H408Q403 44 393 33T347 4T267 -15Q179 -15 130 35T80 185Z" />
<glyph unicode="v" glyph-name="v" horiz-adv-x="544" d="M239 0L25 530H109L271 115H273L435 530H519L305 0H239Z" />
<glyph unicode="w" glyph-name="w" horiz-adv-x="787" d="M162 0L45 530H126L211 131H213L353 530H427L565 131H567L662 530H742L615 0H540L390 433H388L238 0H162Z" />
<glyph unicode="x" glyph-name="x" horiz-adv-x="512" d="M25 0L204 272L36 530H126L255 326H257L386 530H475L308 272L487 0H396L256 218H254L116 0H25Z" />
<glyph unicode="y" glyph-name="y" horiz-adv-x="497" d="M113 -225L219 56L20 530H106L256 164H258L393 530H477L192 -225H113Z" />
<glyph unicode="z" glyph-name="z" horiz-adv-x="550" d="M55 0V64L388 453V455H74V530H494V468L164 78V76H495V0H55Z" />
<glyph unicode="{" glyph-name="braceleft" horiz-adv-x="387" d="M136 -41V182Q136 214 124 227T83 240H55V329H83Q112 329 124 343T136 390V590Q136 670 169 700T268 730H322V670H269Q232 670 216 651T200 583V387Q200 358 191 337T168 305T145 291T130 285Q200
257 200 185V-34Q200 -83 216 -102T270 -121H322V-181H268Q203 -181 170 -152T136 -41Z" />
<glyph unicode="|" glyph-name="bar" horiz-adv-x="273" d="M105 -300V775H168V-300H105Z" />
<glyph unicode="}" glyph-name="braceright" horiz-adv-x="387" d="M211 182V-41Q211 -122 178 -151T79 -181H25V-121H77Q115 -121 131 -102T147 -34V185Q147 257 217 285Q212 286 203 290T180 305T157 336T147 387V583Q147 631 131 650T78 670H25V730H79Q144
730 177 700T211 590V390Q211 358 223 344T264 329H292V240H264Q235 240 223 227T211 182Z" />
<glyph unicode="~" glyph-name="asciitilde" horiz-adv-x="597" d="M192 391Q173 391 159 384T135 359T121 334T110 302L55 319Q68 380 102 421T192 462Q234 462 273 440T345 397T405 375Q424 375 438 382T462 407T476 432T487 464L542 447Q529 386 495 345T405
304Q363 304 324 326T252 369T192 391Z" />
</font>
</defs>
</svg>
