<?xml version="1.0" encoding="utf-8"?>
<!-- Generator: Adobe Illustrator 21.1.0, SVG Export Plug-In . SVG Version: 6.00 Build 0)  -->
<svg version="1.1" id="Layer_1" xmlns="http://www.w3.org/2000/svg" xmlns:xlink="http://www.w3.org/1999/xlink" x="0px" y="0px"
	 viewBox="0 0 400 400" style="enable-background:new 0 0 400 400;" xml:space="preserve">
<path d="M348.6,75.2H51.2C28.5,75.2,10,93.7,10,116.4v167.1c0,22.7,18.5,41.2,41.2,41.2h297.4c22.7,0,41.2-18.5,41.2-41.2V116.4
	C389.8,93.7,371.3,75.2,348.6,75.2z M51.2,103.5h297.4c6.1,0,11.3,4.3,12.5,10.1L199.9,245.5l-161.2-132
	C40,107.8,45.1,103.5,51.2,103.5z M348.6,296.4H51.2c-7.1,0-12.9-5.8-12.9-12.9V151.3l161.6,132.3l161.6-132.3v132.2
	C361.5,290.6,355.7,296.4,348.6,296.4z"/>
</svg>
