<?xml version="1.0" encoding="utf-8"?>
<!-- Generator: Adobe Illustrator 21.1.0, SVG Export Plug-In . SVG Version: 6.00 Build 0)  -->
<svg version="1.1" id="Layer_1" xmlns="http://www.w3.org/2000/svg" xmlns:xlink="http://www.w3.org/1999/xlink" x="0px" y="0px"
	 viewBox="0 0 400 400" style="enable-background:new 0 0 400 400;" xml:space="preserve">
<path d="M348.6,75.2H51.2C28.5,75.2,10,93.7,10,116.4v167.1c0,22.7,18.5,41.2,41.2,41.2h297.4c22.7,0,41.2-18.5,41.2-41.2V116.4
	C389.8,93.7,371.3,75.2,348.6,75.2z M51.2,96.9h297.4c10.8,0,19.5,8.8,19.5,19.5v1.6L199.9,255.6L31.7,117.9v-1.5
	C31.7,105.6,40.4,96.9,51.2,96.9z M348.6,303H51.2c-10.8,0-19.5-8.8-19.5-19.5V145.9l168.2,137.7l168.2-137.7v137.6
	C368.1,294.3,359.4,303,348.6,303z"/>
</svg>
