<?xml version="1.0" encoding="utf-8"?>
<!-- Generator: Adobe Illustrator 21.1.0, SVG Export Plug-In . SVG Version: 6.00 Build 0)  -->
<svg version="1.1" id="Layer_1" xmlns="http://www.w3.org/2000/svg" xmlns:xlink="http://www.w3.org/1999/xlink" x="0px" y="0px"
	 viewBox="0 0 400 400" style="enable-background:new 0 0 400 400;" xml:space="preserve">
<g>
	<path d="M200,44.2c50.7,0,56.7,0.2,76.8,1.1c18.5,0.8,28.6,3.9,35.3,6.5c8.9,3.4,15.2,7.6,21.8,14.2c6.6,6.6,10.8,13,14.2,21.8
		c2.6,6.7,5.7,16.8,6.5,35.3c0.9,20,1.1,26,1.1,76.8s-0.2,56.7-1.1,76.8c-0.8,18.5-3.9,28.6-6.5,35.3c-3.4,8.9-7.6,15.2-14.2,21.8
		c-6.6,6.6-13,10.8-21.8,14.2c-6.7,2.6-16.8,5.7-35.3,6.5c-20,0.9-26,1.1-76.8,1.1s-56.7-0.2-76.8-1.1c-18.5-0.8-28.6-3.9-35.3-6.5
		c-8.9-3.4-15.2-7.6-21.8-14.2c-6.6-6.6-10.8-13-14.2-21.8c-2.6-6.7-5.7-16.8-6.5-35.3c-0.9-20-1.1-26-1.1-76.8s0.2-56.7,1.1-76.8
		c0.8-18.5,3.9-28.6,6.5-35.3c3.4-8.9,7.6-15.2,14.2-21.8c6.6-6.6,13-10.8,21.8-14.2c6.7-2.6,16.8-5.7,35.3-6.5
		C143.3,44.4,149.3,44.2,200,44.2 M200,10c-51.6,0-58.1,0.2-78.3,1.1c-20.2,0.9-34,4.1-46.1,8.8c-12.6,4.9-23.1,11.4-33.7,22
		S24.8,63,20,75.5c-4.7,12.1-7.9,25.9-8.8,46.1c-1,20.3-1.2,26.8-1.2,78.4s0.2,58.1,1.1,78.3c0.9,20.2,4.1,34,8.8,46.1
		c4.9,12.5,11.4,23.1,21.9,33.7C52.5,368.7,63,375.2,75.5,380c12.1,4.7,25.9,7.9,46.1,8.8c20.3,0.9,26.7,1.1,78.3,1.1
		s58.1-0.2,78.3-1.1s34-4.1,46.1-8.8c12.5-4.9,23.1-11.4,33.7-21.9c10.6-10.6,17.1-21.2,21.9-33.7c4.7-12.1,7.9-25.9,8.8-46.1
		c0.9-20.3,1.1-26.7,1.1-78.3s-0.2-58.1-1.1-78.3s-4.1-34-8.8-46.1C375,63.1,368.5,52.5,358,41.9c-10.5-10.6-21-17.1-33.5-21.9
		c-12.1-4.7-25.9-7.9-46.1-8.8C258.1,10.2,251.6,10,200,10L200,10z"/>
	<path d="M200,102.4c-53.9,0-97.6,43.7-97.6,97.6s43.7,97.6,97.6,97.6s97.6-43.7,97.6-97.6S253.9,102.4,200,102.4z M200,263.3
		c-35,0-63.3-28.4-63.3-63.3s28.4-63.3,63.3-63.3s63.3,28.4,63.3,63.3S235,263.3,200,263.3z"/>
	<circle cx="301.4" cy="98.6" r="22.8"/>
</g>
</svg>
